# xmcd
#
# Track frame offsets:
#	150
#	18048
#	36690
#	56506
#	80338
#	100007
#	117333
#	137127
#	159307
#	181186
#	202941
#	221358
#	237396
#	253209
#
# Disc length: 3634 seconds
#
# Revision: 1
# Processed by: cddbd v1.5.1PL0 Copyright (c) Steve Scherf et al.
# Submitted via: CDex 1.50Beta5
#
DISCID=b80e300e
DTITLE=19 - 19 BEST●青
DYEAR=2002
DGENRE=
TTITLE0=あの青をこえて
TTITLE1=西暦前進2000年→
TTITLE2=あの紙ヒコーキ くもり空わって
TTITLE3=卒業の歌、友達の歌。
TTITLE4=すべてへ
TTITLE5=嘘がぼくらをみつけたんだ
TTITLE6=『果てのない道』
TTITLE7=水・陸・そら、無限大
TTITLE8=やさしい激動
TTITLE9=背景ロマン
TTITLE10=足跡
TTITLE11=たいせつなひと
TTITLE12=小田急柿生
TTITLE13=「テーマソング(ボクらの)」(インストア編)
EXTD=
EXTT0=
EXTT1=
EXTT2=
EXTT3=
EXTT4=
EXTT5=
EXTT6=
EXTT7=
EXTT8=
EXTT9=
EXTT10=
EXTT11=
EXTT12=
EXTT13=
PLAYORDER=
